<?xml version="1.0" encoding="UTF-8"?>
<svg width="62px" height="10px" viewBox="0 0 62 10" version="1.1" xmlns="http://www.w3.org/2000/svg" xmlns:xlink="http://www.w3.org/1999/xlink">
    <!-- Generator: Sketch 52.3 (67297) - http://www.bohemiancoding.com/sketch -->
    <title>logo</title>
    <desc>Created with Sketch.</desc>
    <g id="Page-1" stroke="none" stroke-width="1" fill="none" fill-rule="evenodd">
        <g id="logo" fill="#FFFFFF">
            <path d="M3.9515,2.796 C4.65550352,2.796 5.2146646,3.03066432 5.629,3.5 C6.04333541,3.96933568 6.2505,4.61466256 6.2505,5.436 L6.2505,9 L4.3695,9 L4.3695,5.656 C4.3695,5.24533128 4.26133442,4.92450116 4.045,4.6935 C3.82866559,4.46249885 3.54083513,4.347 3.1815,4.347 C2.80016476,4.347 2.49766779,4.46799879 2.274,4.71 C2.05033222,4.95200121 1.9385,5.29666443 1.9385,5.744 L1.9385,9 L0.0575,9 L0.0575,2.862 L1.9385,2.862 L1.9385,3.984 C2.11450088,3.6173315 2.37666493,3.32766773 2.725,3.115 C3.07333508,2.90233227 3.48216432,2.796 3.9515,2.796 Z M13.3235,5.766 C13.3235,5.92000077 13.3051669,6.08866575 13.2685,6.272 L9.0115,6.272 C9.03350011,6.73400231 9.15083227,7.06583233 9.3635,7.2675 C9.57616773,7.46916768 9.84749835,7.57 10.1775,7.57 C10.4561681,7.57 10.6871658,7.50033403 10.8705,7.361 C11.0538343,7.22166597 11.174833,7.0420011 11.2335,6.822 L13.2245,6.822 C13.1438329,7.25466883 12.9678347,7.6414983 12.6965,7.9825 C12.4251653,8.32350171 12.0805021,8.5911657 11.6625,8.7855 C11.2444979,8.97983431 10.7788359,9.077 10.2655,9.077 C9.66416366,9.077 9.130669,8.95050127 8.665,8.6975 C8.19933101,8.44449874 7.83450132,8.07966905 7.5705,7.603 C7.30649868,7.12633095 7.1745,6.56900319 7.1745,5.931 C7.1745,5.28566344 7.30466537,4.72650237 7.565,4.2535 C7.82533464,3.78049764 8.19016432,3.41750127 8.6595,3.1645 C9.12883568,2.91149874 9.66416366,2.785 10.2655,2.785 C10.8741697,2.785 11.4094977,2.90966542 11.8715,3.159 C12.3335023,3.40833458 12.6909987,3.75849775 12.944,4.2095 C13.1970013,4.66050226 13.3235,5.1793304 13.3235,5.766 Z M11.4205,5.48 C11.4278334,5.07666465 11.3196678,4.77416768 11.096,4.5725 C10.8723322,4.37083233 10.5955017,4.27 10.2655,4.27 C9.92083161,4.27 9.63483447,4.37266564 9.4075,4.578 C9.18016553,4.78333436 9.05183348,5.08399802 9.0225,5.48 L11.4205,5.48 Z M18.1415,9 L16.8875,7.251 L15.8645,9 L13.7965,9 L15.8315,5.799 L13.7195,2.862 L15.8315,2.862 L17.0745,4.589 L18.0975,2.862 L20.1655,2.862 L18.0865,5.986 L20.2535,9 L18.1415,9 Z M24.4335,7.383 L24.4335,9 L23.5865,9 C22.8678297,9 22.3086687,8.82216845 21.909,8.4665 C21.5093313,8.11083156 21.3095,7.52233744 21.3095,6.701 L21.3095,4.446 L20.4845,4.446 L20.4845,2.862 L21.3095,2.862 L21.3095,1.355 L23.1905,1.355 L23.1905,2.862 L24.4225,2.862 L24.4225,4.446 L23.1905,4.446 L23.1905,6.734 C23.1905,6.97600121 23.2399995,7.14466619 23.339,7.24 C23.4380005,7.33533381 23.6048322,7.383 23.8395,7.383 L24.4335,7.383 Z" id="nextatelier"></path>
            <path d="M27.8215,2.785 C28.2908357,2.785 28.694165,2.89133227 29.0315,3.104 C29.368835,3.31666773 29.6181659,3.6063315 29.7795,3.973 L29.7795,2.862 L31.6495,2.862 L31.6495,9 L29.7795,9 L29.7795,7.889 C29.6181659,8.2556685 29.368835,8.54533227 29.0315,8.758 C28.694165,8.97066773 28.2908357,9.077 27.8215,9.077 C27.3154975,9.077 26.8626687,8.95050126 26.463,8.6975 C26.0633313,8.44449873 25.7480012,8.07966905 25.517,7.603 C25.2859988,7.12633095 25.1705,6.56900319 25.1705,5.931 C25.1705,5.28566344 25.2859988,4.72650236 25.517,4.2535 C25.7480012,3.78049763 26.0633313,3.41750126 26.463,3.1645 C26.8626687,2.91149873 27.3154975,2.785 27.8215,2.785 Z M28.4265,4.435 C28.0231646,4.435 27.6986679,4.56699868 27.453,4.831 C27.2073321,5.09500132 27.0845,5.46166432 27.0845,5.931 C27.0845,6.40033568 27.2073321,6.76699868 27.453,7.031 C27.6986679,7.29500132 28.0231646,7.427 28.4265,7.427 C28.822502,7.427 29.1469987,7.29133469 29.4,7.02 C29.6530013,6.74866531 29.7795,6.38566894 29.7795,5.931 C29.7795,5.46899769 29.6530013,5.104168 29.4,4.8365 C29.1469987,4.56883199 28.822502,4.435 28.4265,4.435 Z M36.4235,7.383 L36.4235,9 L35.5765,9 C34.8578297,9 34.2986687,8.82216844 33.899,8.4665 C33.4993313,8.11083155 33.2995,7.52233744 33.2995,6.701 L33.2995,4.446 L32.4745,4.446 L32.4745,2.862 L33.2995,2.862 L33.2995,1.355 L35.1805,1.355 L35.1805,2.862 L36.4125,2.862 L36.4125,4.446 L35.1805,4.446 L35.1805,6.734 C35.1805,6.97600121 35.2299995,7.14466619 35.329,7.24 C35.4280005,7.33533381 35.5948322,7.383 35.8295,7.383 L36.4235,7.383 Z M43.3095,5.766 C43.3095,5.92000077 43.2911668,6.08866575 43.2545,6.272 L38.9975,6.272 C39.0195001,6.73400231 39.1368323,7.06583232 39.3495,7.2675 C39.5621677,7.46916767 39.8334983,7.57 40.1635,7.57 C40.4421681,7.57 40.6731657,7.50033403 40.8565,7.361 C41.0398342,7.22166597 41.160833,7.0420011 41.2195,6.822 L43.2105,6.822 C43.1298329,7.25466883 42.9538347,7.64149829 42.6825,7.9825 C42.4111653,8.3235017 42.0665021,8.59116569 41.6485,8.7855 C41.2304979,8.9798343 40.7648359,9.077 40.2515,9.077 C39.6501637,9.077 39.116669,8.95050126 38.651,8.6975 C38.185331,8.44449873 37.8205013,8.07966905 37.5565,7.603 C37.2924987,7.12633095 37.1605,6.56900319 37.1605,5.931 C37.1605,5.28566344 37.2906654,4.72650236 37.551,4.2535 C37.8113346,3.78049763 38.1761643,3.41750126 38.6455,3.1645 C39.1148357,2.91149873 39.6501637,2.785 40.2515,2.785 C40.8601697,2.785 41.3954977,2.90966542 41.8575,3.159 C42.3195023,3.40833458 42.6769987,3.75849774 42.93,4.2095 C43.1830013,4.66050225 43.3095,5.1793304 43.3095,5.766 Z M41.4065,5.48 C41.4138334,5.07666465 41.3056678,4.77416767 41.082,4.5725 C40.8583322,4.37083232 40.5815017,4.27 40.2515,4.27 C39.9068316,4.27 39.6208345,4.37266564 39.3935,4.578 C39.1661655,4.78333436 39.0378335,5.08399802 39.0085,5.48 L41.4065,5.48 Z M46.1695,0.86 L46.1695,9 L44.2885,9 L44.2885,0.86 L46.1695,0.86 Z M47.2915,1.135 C47.2915,0.84899857 47.3941656,0.612500935 47.5995,0.4255 C47.8048344,0.238499065 48.076165,0.145 48.4135,0.145 C48.750835,0.145 49.0221656,0.238499065 49.2275,0.4255 C49.4328344,0.612500935 49.5355,0.84899857 49.5355,1.135 C49.5355,1.41366806 49.4328344,1.64649906 49.2275,1.8335 C49.0221656,2.02050093 48.750835,2.114 48.4135,2.114 C48.076165,2.114 47.8048344,2.02050093 47.5995,1.8335 C47.3941656,1.64649906 47.2915,1.41366806 47.2915,1.135 Z M49.3485,2.862 L49.3485,9 L47.4675,9 L47.4675,2.862 L49.3485,2.862 Z M56.4765,5.766 C56.4765,5.92000077 56.4581668,6.08866575 56.4215,6.272 L52.1645,6.272 C52.1865001,6.73400231 52.3038323,7.06583232 52.5165,7.2675 C52.7291677,7.46916767 53.0004984,7.57 53.3305,7.57 C53.6091681,7.57 53.8401657,7.50033403 54.0235,7.361 C54.2068342,7.22166597 54.327833,7.0420011 54.3865,6.822 L56.3775,6.822 C56.2968329,7.25466883 56.1208347,7.64149829 55.8495,7.9825 C55.5781653,8.3235017 55.2335021,8.59116569 54.8155,8.7855 C54.3974979,8.9798343 53.9318359,9.077 53.4185,9.077 C52.8171637,9.077 52.283669,8.95050126 51.818,8.6975 C51.352331,8.44449873 50.9875013,8.07966905 50.7235,7.603 C50.4594987,7.12633095 50.3275,6.56900319 50.3275,5.931 C50.3275,5.28566344 50.4576654,4.72650236 50.718,4.2535 C50.9783346,3.78049763 51.3431643,3.41750126 51.8125,3.1645 C52.2818357,2.91149873 52.8171637,2.785 53.4185,2.785 C54.0271697,2.785 54.5624977,2.90966542 55.0245,3.159 C55.4865023,3.40833458 55.8439987,3.75849774 56.097,4.2095 C56.3500013,4.66050225 56.4765,5.1793304 56.4765,5.766 Z M54.5735,5.48 C54.5808334,5.07666465 54.4726678,4.77416767 54.249,4.5725 C54.0253322,4.37083232 53.7485017,4.27 53.4185,4.27 C53.0738316,4.27 52.7878345,4.37266564 52.5605,4.578 C52.3331655,4.78333436 52.2048335,5.08399802 52.1755,5.48 L54.5735,5.48 Z M59.3365,4.017 C59.5711678,3.64299813 59.8736648,3.3460011 60.244,3.126 C60.6143352,2.9059989 61.0158312,2.796 61.4485,2.796 L61.4485,4.809 L60.9095,4.809 C60.4108308,4.809 60.0240014,4.91533227 59.749,5.128 C59.4739986,5.34066773 59.3365,5.69999747 59.3365,6.206 L59.3365,9 L57.4555,9 L57.4555,2.862 L59.3365,2.862 L59.3365,4.017 Z" id="nextatelier-copy" fill-opacity="0.5"></path>
        </g>
    </g>
</svg>